<svg x="80.859" width="159" preserveAspectRatio="none" xmlns:xlink="http://www.w3.org/1999/xlink" xmlns="http://www.w3.org/2000/svg" viewBox="0 0 100 100" height="159">
            <svg viewBox="0 0 100 100" xmlns:xlink="http://www.w3.org/1999/xlink" xmlns="http://www.w3.org/2000/svg">
                <path d="M100 78.9c-7.2.5-13.8.9-20.3 1.3.3-7.2.6-14.5.8-21.7 6.5-.2 13.1-.5 19.5-.6V37.3l-19.1.8c.1-5.5.1-11.4.2-18.3l18.9.2V0H80c.1 7 .1 13.2.1 18.8l-17.5-.1c-.4-6.2-.8-12.5-1.4-18.7H40.7l-.8 18.6-20.4-.1c-.2-6.1-.5-12.4-.8-18.5H0v19.4c6.2 0 12.4.1 18.6.1.3 6.6.5 13.5.8 21.1h-.5L0 41.5v21.8c6.4-.5 12.9-1 19.8-1.4.1 6.6.3 13.4.4 20.6-7.2 0-13.8.1-20.2.2V100h21.4c0-6-.1-11.4-.1-16.6 5.6-.1 10.8-.2 15.9-.4l-.7 17h23c.8-5.8 1.4-11.8 2-17.9 6.3-.3 11.9-.6 17.3-.9-.3 6.4-.6 12.7-.9 18.7H100v-21zM20.9 60.7c-.1-6.1-.3-12.3-.5-19.1l18.6-.7-.8 18.8c-5.8.3-11.6.6-17.3 1zm39.6 20.5c-7.9.3-15.2.6-22.2.8l.9-21.4c7.5-.4 15.2-.9 22.7-1.2-.3 7.1-.8 14.5-1.4 21.8zM40 39.8l.9-20.2 20.7.1c.3 6.1.5 12.6.5 19.2l-22.1.9zm22.9 18.5c.2-6.1.3-12.3.3-18.4l16.7-.7c-.1 5.9-.2 12.1-.4 18.4-6.3.2-11.6.4-16.6.7z" fill="#acb5bc" data-color="1"></path>
            </svg>
        </svg>